HIERARCHY
ROOT hip
{
  OFFSET 0 0 0
  CHANNELS 6 Xposition Yposition Zposition Zrotation Yrotation Xrotation
  JOINT abdomen
  {
    OFFSET 0 20.6881 -0.73152
    CHANNELS 3 Zrotation Xrotation Yrotation
    JOINT chest
    {
      OFFSET 0 11.7043 -0.48768
      CHANNELS 3 Zrotation Xrotation Yrotation
      JOINT neck
      {
        OFFSET 0 22.1894 -2.19456
        CHANNELS 3 Zrotation Xrotation Yrotation
        JOINT head
        {
          OFFSET -0.24384 7.07133 1.2192
          CHANNELS 3 Zrotation Xrotation Yrotation
          JOINT leftEye
          {
            OFFSET 4.14528 8.04674 8.04672
            CHANNELS 3 Zrotation Xrotation Yrotation
            End Site
            {
              OFFSET 1 0 0
            }
          }
          JOINT rightEye
          {
            OFFSET -3.6576 8.04674 8.04672
            CHANNELS 3 Zrotation Xrotation Yrotation
            End Site
            {
              OFFSET 1 0 0
            }
          }
        }
      }
      JOINT rCollar
      {
        OFFSET -2.68224 19.2634 -4.8768
        CHANNELS 3 Zrotation Xrotation Yrotation
        JOINT rShldr
        {
          OFFSET -8.77824 -1.95073 1.46304
          CHANNELS 3 Zrotation Xrotation Yrotation
          JOINT rForeArm
          {
            OFFSET -28.1742 -1.7115 0.48768
            CHANNELS 3 Zrotation Xrotation Yrotation
            JOINT rHand
            {
              OFFSET -22.5879 0.773209 7.07136
              CHANNELS 3 Zrotation Xrotation Yrotation
              JOINT rThumb1
              {
                OFFSET -1.2192 -0.487915 3.41376
                CHANNELS 3 Zrotation Xrotation Yrotation
                JOINT rThumb2
                {
                  OFFSET -3.37035 -0.52449 3.41376
                  CHANNELS 3 Zrotation Xrotation Yrotation
                  End Site
                  {
                    OFFSET -1.78271 -1.18214 1.43049
                  }
                }
              }
              JOINT rIndex1
              {
                OFFSET -7.75947 0.938293 5.60832
                CHANNELS 3 Zrotation Xrotation Yrotation
                JOINT rIndex2
                {
                  OFFSET -2.54057 -0.884171 1.56538
                  CHANNELS 3 Zrotation Xrotation Yrotation
                  End Site
                  {
                    OFFSET -1.62519 -0.234802 1.16502
                  }
                }
              }
              JOINT rMid1
              {
                OFFSET -8.24714 1.18213 3.41376
                CHANNELS 3 Zrotation Xrotation Yrotation
                JOINT rMid2
                {
                  OFFSET -3.10165 -0.590103 1.0647
                  CHANNELS 3 Zrotation Xrotation Yrotation
                  End Site
                  {
                    OFFSET -2.48547 -0.328903 0.83742
                  }
                }
              }
              JOINT rRing1
              {
                OFFSET -8.82822 0.546677 1.51678
                CHANNELS 3 Zrotation Xrotation Yrotation
                JOINT rRing2
                {
                  OFFSET -2.60934 -0.819778 -0.0198488
                  CHANNELS 3 Zrotation Xrotation Yrotation
                  End Site
                  {
                    OFFSET -2.33842 -0.294052 0.168128
                  }
                }
              }
              JOINT rPinky1
              {
                OFFSET -8.27202 -0.0477905 -0.4584
                CHANNELS 3 Zrotation Xrotation Yrotation
                JOINT rPinky2
                {
                  OFFSET -1.82734 -0.647385 -0.700984
                  CHANNELS 3 Zrotation Xrotation Yrotation
                  End Site
                  {
                    OFFSET -1.69225 -0.51767 -0.607171
                  }
                }
              }
            }
          }
        }
      }
      JOINT lCollar
      {
        OFFSET 2.68224 19.2634 -4.8768
        CHANNELS 3 Zrotation Xrotation Yrotation
        JOINT lShldr
        {
          OFFSET 8.77824 -1.95073 1.46304
          CHANNELS 3 Zrotation Xrotation Yrotation
          JOINT lForeArm
          {
            OFFSET 28.1742 -1.7115 0.48768
            CHANNELS 3 Zrotation Xrotation Yrotation
            JOINT lHand
            {
              OFFSET 22.5879 0.773209 7.07136
              CHANNELS 3 Zrotation Xrotation Yrotation
              JOINT lThumb1
              {
                OFFSET 1.2192 -0.487915 3.41376
                CHANNELS 3 Zrotation Xrotation Yrotation
                JOINT lThumb2
                {
                  OFFSET 3.37035 -0.52449 3.41376
                  CHANNELS 3 Zrotation Xrotation Yrotation
                  End Site
                  {
                    OFFSET 1.78271 -1.18214 1.43049
                  }
                }
              }
              JOINT lIndex1
              {
                OFFSET 7.75947 0.938293 5.60832
                CHANNELS 3 Zrotation Xrotation Yrotation
                JOINT lIndex2
                {
                  OFFSET 2.54057 -0.884171 1.56538
                  CHANNELS 3 Zrotation Xrotation Yrotation
                  End Site
                  {
                    OFFSET 1.62519 -0.234802 1.16502
                  }
                }
              }
              JOINT lMid1
              {
                OFFSET 8.24714 1.18213 3.41376
                CHANNELS 3 Zrotation Xrotation Yrotation
                JOINT lMid2
                {
                  OFFSET 3.10165 -0.590103 1.0647
                  CHANNELS 3 Zrotation Xrotation Yrotation
                  End Site
                  {
                    OFFSET 2.48547 -0.328903 0.83742
                  }
                }
              }
              JOINT lRing1
              {
                OFFSET 8.82822 0.546677 1.51678
                CHANNELS 3 Zrotation Xrotation Yrotation
                JOINT lRing2
                {
                  OFFSET 2.60934 -0.819778 -0.0198488
                  CHANNELS 3 Zrotation Xrotation Yrotation
                  End Site
                  {
                    OFFSET 2.33842 -0.294052 0.168128
                  }
                }
              }
              JOINT lPinky1
              {
                OFFSET 8.27202 -0.0477905 -0.4584
                CHANNELS 3 Zrotation Xrotation Yrotation
                JOINT lPinky2
                {
                  OFFSET 1.82734 -0.647385 -0.700984
                  CHANNELS 3 Zrotation Xrotation Yrotation
                  End Site
                  {
                    OFFSET 1.69225 -0.51767 -0.607171
                  }
                }
              }
            }
          }
        }
      }
    }
  }
  JOINT rButtock
  {
    OFFSET -8.77824 4.35084 1.2192
    CHANNELS 3 Zrotation Xrotation Yrotation
    JOINT rThigh
    {
      OFFSET 0 -1.70687 -2.19456
      CHANNELS 3 Zrotation Xrotation Yrotation
      JOINT rShin
      {
        OFFSET 0 -36.8199 0.73152
        CHANNELS 3 Zrotation Xrotation Yrotation
        JOINT rFoot
        {
          OFFSET 0.73152 -45.1104 -5.12064
          CHANNELS 3 Zrotation Xrotation Yrotation
          End Site
          {
            OFFSET -1.1221 -3.69964 12.103
          }
        }
      }
    }
  }
  JOINT lButtock
  {
    OFFSET 8.77824 4.35084 1.2192
    CHANNELS 3 Zrotation Xrotation Yrotation
    JOINT lThigh
    {
      OFFSET 0 -1.70687 -2.19456
      CHANNELS 3 Zrotation Xrotation Yrotation
      JOINT lShin
      {
        OFFSET 0 -36.8199 0.73152
        CHANNELS 3 Zrotation Xrotation Yrotation
        JOINT lFoot
        {
          OFFSET -0.73152 -45.1104 -5.12064
          CHANNELS 3 Zrotation Xrotation Yrotation
          End Site
          {
            OFFSET 1.1221 -3.69964 12.103
          }
        }
      }
    }
  }
}
MOTION
Frames:	6
Frame Time:	0.00833333
-80.2726 85.1887 -1.15427 0.0 0.0 0.0 0.55935 -0.00286671 0.0159888 0.154366 -0.00442833 0.026746 -9.68225e-15 -7.95139e-16 2.17421e-16 -2.86716e-14 3.18055e-15 6.50709e-16 -0.0 0.0 0.0 -0.0 0.0 0.0 -4.82198e-15 6.21202e-18 2.48481e-16 -9.82593e-14 9.93923e-17 2.78299e-15 -1.73668e-12 5.19027e-13 4.77083e-14 -1.98385e-11 -5.10106e-13 4.0075e-13 -4.6805e-11 1.20823e-14 9.92333e-13 -8.0839e-11 1.59028e-14 1.72625e-12 -4.68011e-11 1.51076e-14 9.85972e-13 7.73091 5.47488 0.417314 -4.68054e-11 1.23246e-14 9.95514e-13 2.90554 0.965183 0.102902 -4.6796e-11 1.25234e-14 9.97104e-13 10.2786 0.731801 0.0259123 -4.68037e-11 1.07344e-14 1.00187e-12 2.22167 -0.733487 -0.20892 -4.8194e-15 6.98852e-18 -4.96962e-17 -1.02571e-13 1.86361e-16 5.96354e-16 -1.73191e-12 -5.18033e-13 6.67917e-14 -1.98435e-11 5.16567e-13 4.0075e-13 -4.68044e-11 -6.88132e-15 9.98694e-13 -8.0825e-11 -1.27222e-14 1.72863e-12 -4.68118e-11 -4.37326e-15 1.00824e-12 -7.73091 5.47488 -0.417314 -4.68049e-11 -6.55989e-15 9.95514e-13 -2.90554 0.965183 -0.102902 -4.68167e-11 -6.06293e-15 9.99489e-13 -10.2786 0.731801 -0.0259123 -4.6807e-11 -7.55382e-15 9.89153e-13 -2.22167 -0.733487 0.20892 -2.03217e-16 0.0 -3.88251e-19 0.923008 -4.50512 -0.0770321 -0.0020684 2.60853 -0.00963062 -0.502476 1.89677 0.095944 2.03217e-16 0.0 3.88251e-19 -0.0712316 -2.35216 0.0224555 0.00807185 -1.29119 0.0691976 0.494601 3.64342 -0.130516
-78.2316 83.5675 -5.24073 16.7318 78.9715 27.2064 -1.57054 -3.22561 0.960433 0.0489043 0.925007 0.352429 -1.12343 1.23598 -1.28484 0.924176 2.09108 -2.05079 -0.0 0.0 0.0 -0.0 0.0 0.0 -3.99746e-14 1.33841e-12 4.32795e-14 24.5741 16.2971 -2.35648 -25.2785 -23.0636 14.3431 0.014242 -3.27458 -0.458306 -4.71805e-10 1.01844e-09 2.61075e-09 -8.37058e-10 1.76895e-09 4.51338e-09 -4.71801e-10 1.01844e-09 2.61075e-09 7.73091 5.47488 0.417314 -4.71805e-10 1.01844e-09 2.61075e-09 2.90554 0.965183 0.102902 -4.71797e-10 1.01844e-09 2.61076e-09 10.2786 0.731801 0.0259123 -4.71803e-10 1.01844e-09 2.61076e-09 2.22167 -0.733487 -0.20892 -3.99783e-14 1.33841e-12 4.30245e-14 -21.5318 19.959 -0.825733 24.8832 -22.6963 -14.4566 -0.0725676 -5.98155 0.824196 -3.41364e-10 3.46094e-09 -2.54007e-09 -5.46639e-10 5.99094e-09 -4.3955e-09 -3.4137e-10 3.46094e-09 -2.54006e-09 -7.73091 5.47488 -0.417314 -3.41364e-10 3.46094e-09 -2.54007e-09 -2.90554 0.965183 -0.102902 -3.41376e-10 3.46094e-09 -2.54007e-09 -10.2786 0.731801 -0.0259123 -3.41365e-10 3.46094e-09 -2.54008e-09 -2.22167 -0.733487 0.20892 -2.03217e-16 0.0 -3.88251e-19 -2.89783 -10.299 -0.10659 0.00695761 12.3718 0.151995 -0.724336 -1.0531 -2.58413 2.03217e-16 0.0 3.88251e-19 -1.12407 -6.57904 2.59142 0.0057909 1.90933 0.0270531 0.484846 0.584794 1.58188
-78.3865 83.5735 -5.02943 17.6917 79.0402 28.29 -3.71115 -6.63318 1.94567 -0.0658118 1.9026 0.690111 -2.3152 2.50428 -2.68415 2.15866 4.42075 -4.28944 -0.0 0.0 0.0 -0.0 0.0 0.0 -7.84993e-14 2.7967e-12 9.03818e-14 52.2589 33.3947 -5.58008 -36.3 -42.0969 37.8545 -0.0339646 -6.95771 -0.979568 -9.70132e-10 2.17866e-09 5.53947e-09 -1.72214e-09 3.78402e-09 9.57662e-09 -9.70128e-10 2.17867e-09 5.53947e-09 7.73091 5.47488 0.417314 -9.70132e-10 2.17867e-09 5.53947e-09 2.90554 0.965183 0.102902 -9.70124e-10 2.17867e-09 5.53947e-09 10.2786 0.731801 0.0259123 -9.70128e-10 2.17867e-09 5.53947e-09 2.22167 -0.733487 -0.20892 -7.85085e-14 2.7967e-12 9.01737e-14 -43.4795 41.0469 -2.12965 35.7602 -41.3237 -37.7831 0.0418275 -12.3022 1.72609 -6.80037e-10 7.35562e-09 -5.39967e-09 -1.08326e-09 1.2733e-08 -9.3441e-09 -6.80041e-10 7.35563e-09 -5.39967e-09 -7.73091 5.47488 -0.417314 -6.80036e-10 7.35563e-09 -5.39967e-09 -2.90554 0.965183 -0.102902 -6.80048e-10 7.35562e-09 -5.39967e-09 -10.2786 0.731801 -0.0259123 -6.80035e-10 7.35562e-09 -5.39968e-09 -2.22167 -0.733487 0.20892 -2.03217e-16 0.0 -3.88251e-19 -6.9577 -16.5133 -0.17946 -0.04874 22.8046 0.343309 -1.25318 -4.10397 -5.415 2.03217e-16 0.0 3.88251e-19 -1.82448 -11.0446 5.38157 0.00854398 5.312 -0.0176362 0.672196 -2.65766 3.38611
-78.5025 83.605 -4.7908 18.9216 79.1601 29.3345 -5.5078 -9.66042 2.88571 -0.193748 2.7835 1.00484 -3.20382 3.70047 -3.86168 3.22292 6.24102 -6.18506 -0.0 0.0 0.0 -0.0 0.0 0.0 -1.1028e-13 4.01521e-12 1.29342e-13 79.4586 48.472 -10.2653 -31.1743 -46.8932 68.6393 -0.116407 -9.8212 -1.39309 -1.3218e-09 3.05529e-09 7.83028e-09 -2.34949e-09 5.30682e-09 1.35367e-08 -1.3218e-09 3.05529e-09 7.83028e-09 7.73091 5.47488 0.417314 -1.32181e-09 3.05529e-09 7.83027e-09 2.90554 0.965183 0.102902 -1.3218e-09 3.05529e-09 7.83027e-09 10.2786 0.731801 0.0259123 -1.3218e-09 3.05529e-09 7.83027e-09 2.22167 -0.733487 -0.20892 -1.10296e-13 4.01521e-12 1.29173e-13 -61.4347 59.8013 -4.6328 31.1327 -46.1183 -67.863 0.3208 -17.9294 2.58473 -9.30484e-10 1.03828e-08 -7.62221e-09 -1.47827e-09 1.79729e-08 -1.31899e-08 -9.30486e-10 1.03828e-08 -7.62221e-09 -7.73091 5.47488 -0.417314 -9.30482e-10 1.03828e-08 -7.62221e-09 -2.90554 0.965183 -0.102902 -9.30493e-10 1.03828e-08 -7.62221e-09 -10.2786 0.731801 -0.0259123 -9.3048e-10 1.03828e-08 -7.62221e-09 -2.22167 -0.733487 0.20892 -2.03217e-16 0.0 -3.88251e-19 -10.5591 -21.8868 -0.173538 -0.165605 31.8974 0.54728 -1.99771 -6.88901 -8.001 2.03217e-16 0.0 3.88251e-19 -2.06135 -14.9147 7.94754 0.0154135 8.31037 -0.0578535 1.01456 -5.51065 5.02919
-78.5126 83.5926 -4.53769 20.2528 79.2561 29.9529 -6.66144 -11.7457 3.67999 -0.3337 3.42299 1.26129 -3.45333 4.7241 -4.47834 3.48268 6.82655 -7.18199 -0.0 0.0 0.0 -0.0 0.0 0.0 -1.252e-13 4.63427e-12 1.47945e-13 101.386 58.8382 -16.0963 -27.7364 -41.6254 86.887 -0.140867 -10.639 -1.51282 -1.30685e-09 3.22289e-09 8.5263e-09 -2.33252e-09 5.59896e-09 1.47388e-08 -1.30684e-09 3.2229e-09 8.5263e-09 7.73091 5.47488 0.417314 -1.30685e-09 3.2229e-09 8.52629e-09 2.90554 0.965183 0.102902 -1.30684e-09 3.2229e-09 8.5263e-09 10.2786 0.731801 0.0259123 -1.30684e-09 3.2229e-09 8.5263e-09 2.22167 -0.733487 -0.20892 -1.25227e-13 4.63426e-12 1.47796e-13 -70.7398 72.7567 -9.42496 27.8458 -41.1599 -86.0265 0.622992 -21.8378 3.2286 -9.60365e-10 1.12413e-08 -8.25206e-09 -1.51925e-09 1.94574e-08 -1.42789e-08 -9.60366e-10 1.12414e-08 -8.25207e-09 -7.73091 5.47488 -0.417314 -9.60363e-10 1.12414e-08 -8.25207e-09 -2.90554 0.965183 -0.102902 -9.60374e-10 1.12413e-08 -8.25206e-09 -10.2786 0.731801 -0.0259123 -9.6036e-10 1.12413e-08 -8.25207e-09 -2.22167 -0.733487 0.20892 -2.03217e-16 0.0 -3.88251e-19 -12.9604 -25.1587 0.0503028 -0.285389 37.6412 0.711236 -2.72742 -9.06859 -9.92088 2.03217e-16 0.0 3.88251e-19 -1.99676 -17.409 9.74843 0.0223757 10.298 -0.086035 1.35719 -7.41316 6.23854
-78.5306 83.5933 -4.28506 21.2212 79.2242 30.402 -7.02635 -12.5063 4.26198 -0.486514 3.73227 1.44006 -2.75579 5.57843 -4.23811 2.30362 5.47892 -6.79695 -0.0 0.0 0.0 -0.0 0.0 0.0 -1.11269e-13 4.33084e-12 1.36262e-13 111.579 63.13 -19.7567 -27.7703 -38.0747 91.5504 -0.0402647 -8.23207 -1.16159 -6.68926e-10 2.25622e-09 6.68051e-09 -1.22251e-09 3.92223e-09 1.15449e-08 -6.68924e-10 2.25623e-09 6.68052e-09 7.73091 5.47488 0.417314 -6.68931e-10 2.25623e-09 6.68051e-09 2.90554 0.965183 0.102902 -6.68921e-10 2.25623e-09 6.68051e-09 10.2786 0.731801 0.0259123 -6.68926e-10 2.25623e-09 6.68052e-09 2.22167 -0.733487 -0.20892 -1.11315e-13 4.33084e-12 1.36105e-13 -72.0014 77.7291 -13.5807 27.8045 -37.9105 -91.2177 0.764122 -23.3176 3.48584 -6.12667e-10 8.55646e-09 -6.296e-09 -9.5172e-10 1.48054e-08 -1.08913e-08 -6.12668e-10 8.55646e-09 -6.296e-09 -7.73091 5.47488 -0.417314 -6.12665e-10 8.55646e-09 -6.296e-09 -2.90554 0.965183 -0.102902 -6.12674e-10 8.55646e-09 -6.296e-09 -10.2786 0.731801 -0.0259123 -6.12662e-10 8.55646e-09 -6.29601e-09 -2.22167 -0.733487 0.20892 -2.03217e-16 0.0 -3.88251e-19 -13.6864 -25.4316 0.65947 -0.319005 38.6681 0.758303 -3.18558 -10.4793 -10.8376 2.03217e-16 0.0 3.88251e-19 -1.92324 -18.0127 10.3644 0.0247877 10.8625 -0.0963735 1.52297 -8.01296 6.79729
